<?xml version="1.0" encoding="UTF-8" standalone="no"?>
<!-- Created with Inkscape (http://www.inkscape.org/) -->
<svg
   xmlns:dc="http://purl.org/dc/elements/1.1/"
   xmlns:cc="http://creativecommons.org/ns#"
   xmlns:rdf="http://www.w3.org/1999/02/22-rdf-syntax-ns#"
   xmlns:svg="http://www.w3.org/2000/svg"
   xmlns="http://www.w3.org/2000/svg"
   xmlns:xlink="http://www.w3.org/1999/xlink"
   xmlns:sodipodi="http://sodipodi.sourceforge.net/DTD/sodipodi-0.dtd"
   xmlns:inkscape="http://www.inkscape.org/namespaces/inkscape"
   width="931.95044"
   height="94.534035"
   id="svg12919"
   sodipodi:version="0.32"
   inkscape:version="0.46"
   sodipodi:docname="5510-24t.svg"
   inkscape:output_extension="org.inkscape.output.svg.inkscape"
   version="1.0">
  <defs
     id="defs12921">
    <inkscape:perspective
       sodipodi:type="inkscape:persp3d"
       inkscape:vp_x="0 : 526.18109 : 1"
       inkscape:vp_y="0 : 1000 : 0"
       inkscape:vp_z="744.09448 : 526.18109 : 1"
       inkscape:persp3d-origin="372.04724 : 350.78739 : 1"
       id="perspective12927" />
    <inkscape:perspective
       id="perspective12973"
       inkscape:persp3d-origin="372.04724 : 350.78739 : 1"
       inkscape:vp_z="744.09448 : 526.18109 : 1"
       inkscape:vp_y="0 : 1000 : 0"
       inkscape:vp_x="0 : 526.18109 : 1"
       sodipodi:type="inkscape:persp3d" />
    <inkscape:perspective
       id="perspective13040"
       inkscape:persp3d-origin="372.04724 : 350.78739 : 1"
       inkscape:vp_z="744.09448 : 526.18109 : 1"
       inkscape:vp_y="0 : 1000 : 0"
       inkscape:vp_x="0 : 526.18109 : 1"
       sodipodi:type="inkscape:persp3d" />
    <inkscape:perspective
       id="perspective11928"
       inkscape:persp3d-origin="372.04724 : 350.78739 : 1"
       inkscape:vp_z="744.09448 : 526.18109 : 1"
       inkscape:vp_y="0 : 1000 : 0"
       inkscape:vp_x="0 : 526.18109 : 1"
       sodipodi:type="inkscape:persp3d" />
    <inkscape:perspective
       id="perspective11982"
       inkscape:persp3d-origin="372.04724 : 350.78739 : 1"
       inkscape:vp_z="744.09448 : 526.18109 : 1"
       inkscape:vp_y="0 : 1000 : 0"
       inkscape:vp_x="0 : 526.18109 : 1"
       sodipodi:type="inkscape:persp3d" />
    <inkscape:perspective
       id="perspective12878"
       inkscape:persp3d-origin="372.04724 : 350.78739 : 1"
       inkscape:vp_z="744.09448 : 526.18109 : 1"
       inkscape:vp_y="0 : 1000 : 0"
       inkscape:vp_x="0 : 526.18109 : 1"
       sodipodi:type="inkscape:persp3d" />
  </defs>
  <sodipodi:namedview
     id="base"
     pagecolor="#ffffff"
     bordercolor="#666666"
     borderopacity="1.0"
     inkscape:pageopacity="0.0"
     inkscape:pageshadow="2"
     inkscape:zoom="0.80261779"
     inkscape:cx="466.22103"
     inkscape:cy="20.275344"
     inkscape:document-units="px"
     inkscape:current-layer="layer1"
     showgrid="false"
     inkscape:window-width="1280"
     inkscape:window-height="1024"
     inkscape:window-x="0"
     inkscape:window-y="0" />
  <metadata
     id="metadata12924">
    <rdf:RDF>
      <cc:Work
         rdf:about="">
        <dc:format>image/svg+xml</dc:format>
        <dc:type
           rdf:resource="http://purl.org/dc/dcmitype/StillImage" />
      </cc:Work>
    </rdf:RDF>
  </metadata>
  <g
     inkscape:label="Calque 1"
     inkscape:groupmode="layer"
     id="layer1"
     transform="translate(130.09953,-421.20159)">
    <g
       id="g14162">
      <rect
         y="422.00159"
         x="-129.29953"
         height="92.934036"
         width="930.35046"
         id="rect13046"
         style="fill:#cccccc;fill-opacity:1;stroke:#000000;stroke-width:1.60000002;stroke-miterlimit:4;stroke-dasharray:none;stroke-opacity:1" />
      <g
         inkscape:label="Calque 1"
         id="g13613"
         transform="matrix(0.147845,0,0,0.147845,-199.51551,344.70913)">
        <g
           transform="matrix(8.0257205,0,0,8.0257205,340.45365,8831.4359)"
           style="fill:#074b88;stroke:none;stroke-width:14.23900032;display:inline;enable-background:new"
           id="g11916">
          <path
             transform="matrix(0.33333,0,0,0.33333,-2.1707151e-6,1.3070678e-5)"
             d="M 140,-3025 C 140,-3008 126,-2994 109,-2994 C 91,-2994 77,-3008 77,-3025 C 77,-3042 91,-3056 109,-3056 C 126,-3056 140,-3042 140,-3025 z"
             id="path11913"
             style="fill:#ffffff;fill-rule:evenodd;stroke:none;stroke-width:14.23900032;display:inline;enable-background:new" />
          <path
             transform="scale(0.33333,0.33333)"
             d="M 122,-3035 C 114,-3033 103,-3027 96,-3020 C 99,-3011 112,-3006 122,-3012 C 129,-3006 129,-3006 129,-3006 C 119,-2999 109,-2999 102,-3002 C 97,-3001 88,-2999 86,-3004 C 90,-3002 95,-3003 99,-3004 C 95,-3006 91,-3010 89,-3014 C 88,-3012 85,-3008 86,-3005 C 82,-3008 85,-3013 88,-3017 C 83,-3029 88,-3041 97,-3048 C 104,-3042 104,-3042 104,-3042 C 98,-3039 94,-3032 95,-3024 C 101,-3029 111,-3035 119,-3037 C 116,-3039 112,-3039 109,-3038 C 105,-3041 105,-3041 105,-3041 C 112,-3045 120,-3043 125,-3038 C 130,-3039 135,-3039 136,-3035 C 134,-3036 131,-3037 127,-3036 C 132,-3028 129,-3017 121,-3013 C 118,-3016 118,-3016 118,-3016 C 125,-3020 126,-3030 122,-3035 z"
             id="path11897" />
        </g>
      </g>
      <g
         inkscape:label="Calque 1"
         id="g13682"
         transform="matrix(0.1462883,0,0,0.1462883,-195.39942,345.54822)">
        <g
           transform="matrix(7.9444493,0,0,7.9444493,332.25779,8758.1571)"
           style="fill:#074b88;stroke:none;stroke-width:14.23900032;display:inline;enable-background:new"
           id="g11966">
          <path
             transform="matrix(0.33333,0,0,0.33333,-4.2531991e-7,1.3963444e-5)"
             d="M 95,-3093 C 91,-3092 86,-3089 83,-3086 C 84,-3082 90,-3080 95,-3082 C 98,-3080 98,-3080 98,-3080 C 93,-3076 89,-3077 86,-3078 C 83,-3077 79,-3077 78,-3079 C 80,-3078 82,-3078 84,-3079 C 82,-3080 81,-3081 80,-3083 C 79,-3082 78,-3081 78,-3079 C 76,-3081 78,-3083 79,-3085 C 77,-3090 79,-3096 83,-3099 C 86,-3096 86,-3096 86,-3096 C 84,-3095 82,-3092 82,-3088 C 85,-3090 90,-3093 93,-3094 C 92,-3095 90,-3095 89,-3094 C 87,-3096 87,-3096 87,-3096 C 90,-3098 94,-3097 96,-3095 C 99,-3095 101,-3095 102,-3093 C 101,-3094 99,-3094 97,-3094 C 100,-3090 98,-3085 94,-3083 C 93,-3084 93,-3084 93,-3084 C 96,-3086 97,-3091 95,-3093 z"
             id="path11955"
             style="fill:#074b88;stroke:none;stroke-width:14.23900032;display:inline;enable-background:new" />
          <path
             d="M 64,-3089 L 64,-3080 L 60,-3080 L 60,-3096 L 71,-3087 L 71,-3096 L 75,-3096 L 75,-3080 L 64,-3089 z"
             id="path78"
             style="fill:#074b88;stroke:none;stroke-width:14.23900032;display:inline;enable-background:new"
             transform="matrix(0.3333333,0,0,0.3333333,-4.2531991e-7,1.3963444e-5)" />
          <path
             d="M 115,-3093 L 115,-3096 L 127,-3096 L 127,-3093 L 124,-3093 L 124,-3080 L 120,-3080 L 120,-3093 L 115,-3093 z"
             id="path80"
             style="fill:#074b88;stroke:none;stroke-width:14.23900032;display:inline;enable-background:new"
             transform="matrix(0.3333333,0,0,0.3333333,-4.2531991e-7,1.3963444e-5)" />
          <path
             d="M 130,-3080 L 130,-3096 L 140,-3096 L 140,-3093 L 134,-3093 L 134,-3090 L 139,-3090 L 139,-3087 L 134,-3087 L 134,-3083 L 140,-3083 L 140,-3080 L 130,-3080 z"
             id="path82"
             style="fill:#074b88;stroke:none;stroke-width:14.23900032;display:inline;enable-background:new"
             transform="matrix(0.3333333,0,0,0.3333333,-4.2531991e-7,1.3963444e-5)" />
          <path
             d="M 143,-3080 L 143,-3096 L 147,-3096 L 147,-3083 L 153,-3083 L 153,-3080 L 143,-3080 z"
             id="path84"
             style="fill:#074b88;stroke:none;stroke-width:14.23900032;display:inline;enable-background:new"
             transform="matrix(0.3333333,0,0,0.3333333,-4.2531991e-7,1.3963444e-5)" />
          <path
             transform="scale(0.33333,0.33333)"
             d="M 102,-3080 C 106,-3080 106,-3080 106,-3080 C 106,-3088 106,-3088 106,-3088 C 111,-3080 111,-3080 111,-3080 C 116,-3080 116,-3080 116,-3080 C 111,-3087 111,-3087 111,-3087 C 113,-3088 114,-3090 114,-3091 C 114,-3095 111,-3096 107,-3096 C 102,-3096 102,-3096 102,-3096 C 102,-3080 102,-3080 102,-3080 M 106,-3093 C 109,-3093 110,-3093 110,-3091 C 110,-3089 108,-3088 106,-3088 L 106,-3093 z"
             id="path11959" />
        </g>
      </g>
      <path
         transform="matrix(1.2325581,0,0,1.2325581,26.388768,13.681145)"
         d="M -110.48543,380.04254 A 2.7147849,2.7147849 0 1 1 -115.915,380.04254 A 2.7147849,2.7147849 0 1 1 -110.48543,380.04254 z"
         sodipodi:ry="2.7147849"
         sodipodi:rx="2.7147849"
         sodipodi:cy="380.04254"
         sodipodi:cx="-113.20022"
         id="path13691"
         style="fill:#4d4a49;fill-opacity:1;stroke:none;stroke-width:1.60000002;stroke-miterlimit:4;stroke-dasharray:none;stroke-opacity:1"
         sodipodi:type="arc" />
      <use
         height="1052.3622"
         width="744.09448"
         transform="translate(10,0)"
         id="use13693"
         xlink:href="#path13691"
         y="0"
         x="0" />
      <use
         height="1052.3622"
         width="744.09448"
         transform="translate(10,0)"
         id="use13695"
         xlink:href="#use13693"
         y="0"
         x="0" />
      <use
         height="1052.3622"
         width="744.09448"
         transform="translate(0,12)"
         id="use13697"
         xlink:href="#use13695"
         y="0"
         x="0" />
      <use
         height="1052.3622"
         width="744.09448"
         transform="translate(-10,0)"
         id="use13699"
         xlink:href="#use13697"
         y="0"
         x="0" />
      <use
         height="1052.3622"
         width="744.09448"
         transform="translate(-10,0)"
         id="use13701"
         xlink:href="#use13699"
         y="0"
         x="0" />
      <text
         id="text13711"
         y="477.33099"
         x="-107.10155"
         style="font-size:2.47311592px;font-style:normal;font-weight:normal;fill:#000000;fill-opacity:1;stroke:none;stroke-width:1px;stroke-linecap:butt;stroke-linejoin:miter;stroke-opacity:1;font-family:Bitstream Vera Sans"
         xml:space="preserve"><tspan
           y="477.33099"
           x="-107.10155"
           id="tspan13713"
           sodipodi:role="line">Status</tspan></text>
      <text
         xml:space="preserve"
         style="font-size:2.47311592px;font-style:normal;font-weight:normal;fill:#000000;fill-opacity:1;stroke:none;stroke-width:1px;stroke-linecap:butt;stroke-linejoin:miter;stroke-opacity:1;font-family:Bitstream Vera Sans"
         x="-116.05035"
         y="477.33099"
         id="text13715"><tspan
           sodipodi:role="line"
           id="tspan13717"
           x="-116.05035"
           y="477.33099">PWR</tspan></text>
      <text
         xml:space="preserve"
         style="font-size:2.47311592px;font-style:normal;font-weight:normal;fill:#000000;fill-opacity:1;stroke:none;stroke-width:1px;stroke-linecap:butt;stroke-linejoin:miter;stroke-opacity:1;font-family:Bitstream Vera Sans"
         x="-94.867531"
         y="477.39413"
         id="text13719"><tspan
           sodipodi:role="line"
           id="tspan13721"
           x="-94.867531"
           y="477.39413">Up</tspan></text>
      <text
         id="text13723"
         y="489.39413"
         x="-96.656555"
         style="font-size:2.47311592px;font-style:normal;font-weight:normal;fill:#000000;fill-opacity:1;stroke:none;stroke-width:1px;stroke-linecap:butt;stroke-linejoin:miter;stroke-opacity:1;font-family:Bitstream Vera Sans"
         xml:space="preserve"><tspan
           y="489.39413"
           x="-96.656555"
           id="tspan13725"
           sodipodi:role="line">Down</tspan></text>
      <text
         id="text13727"
         y="489.33099"
         x="-116.44704"
         style="font-size:2.47311592px;font-style:normal;font-weight:normal;fill:#000000;fill-opacity:1;stroke:none;stroke-width:1px;stroke-linecap:butt;stroke-linejoin:miter;stroke-opacity:1;font-family:Bitstream Vera Sans"
         xml:space="preserve"><tspan
           y="489.33099"
           x="-116.44704"
           id="tspan13729"
           sodipodi:role="line">RPSU</tspan></text>
      <text
         xml:space="preserve"
         style="font-size:2.47311592px;font-style:normal;font-weight:normal;fill:#000000;fill-opacity:1;stroke:none;stroke-width:1px;stroke-linecap:butt;stroke-linejoin:miter;stroke-opacity:1;font-family:Bitstream Vera Sans"
         x="-106.20432"
         y="489.39413"
         id="text13731"><tspan
           sodipodi:role="line"
           id="tspan13733"
           x="-106.20432"
           y="489.39413">Base</tspan></text>
      <g
         id="g13886">
        <g
           id="g13796"
           transform="translate(0.5050763,-2.9898475)">
          <rect
             y="444.75034"
             x="294.96454"
             height="55.558392"
             width="183.84776"
             id="rect13735"
             style="fill:#ffffff;fill-opacity:1;stroke:#000000;stroke-width:1;stroke-miterlimit:4;stroke-dasharray:none;stroke-opacity:1" />
          <g
             transform="translate(-30,100)"
             id="g13764">
            <path
               style="opacity:1;fill:#000000;fill-opacity:1;stroke:none;stroke-width:1;stroke-miterlimit:4;stroke-opacity:1"
               d="M 328.04703,348.28586 L 335.68631,348.28586 L 335.68631,347.33884 L 347.49246,347.33884 L 347.49246,348.28586 L 355.32115,348.28586 L 355.32115,359.33441 L 354.05846,359.33441 L 354.05846,363.59598 L 355.32115,363.59598 L 355.32115,368.23637 L 328.04703,368.23637 L 327.95233,363.59598 L 328.99405,363.59598 L 328.99405,359.33441 L 327.9839,359.33441 L 328.04703,348.28586 z"
               id="rect13737"
               sodipodi:nodetypes="ccccccccccccccccc" />
            <g
               id="g13746">
              <rect
                 y="348.15756"
                 x="327.79248"
                 height="5.6861711"
                 width="8.337822"
                 id="rect13740"
                 style="opacity:1;fill:#828180;fill-opacity:1;stroke:#1f2122;stroke-width:0.4959366;stroke-miterlimit:4;stroke-dasharray:none;stroke-opacity:1" />
              <path
                 transform="matrix(0.9046402,0,0,0.9046402,31.072347,33.34809)"
                 d="M 332.21392,351.0322 A 1.7361997,1.7361997 0 1 1 328.74152,351.0322 A 1.7361997,1.7361997 0 1 1 332.21392,351.0322 z"
                 sodipodi:ry="1.7361997"
                 sodipodi:rx="1.7361997"
                 sodipodi:cy="351.0322"
                 sodipodi:cx="330.47772"
                 id="path13742"
                 style="opacity:1;fill:#ffffff;fill-opacity:1;stroke:#2c2e2b;stroke-width:0.5;stroke-miterlimit:4;stroke-dasharray:none;stroke-opacity:1"
                 sodipodi:type="arc" />
              <use
                 height="1052.3622"
                 width="744.09448"
                 transform="translate(3.8105964,0)"
                 id="use13744"
                 xlink:href="#path13742"
                 y="0"
                 x="0" />
            </g>
            <use
               x="0"
               y="0"
               xlink:href="#g13746"
               id="use13751"
               transform="translate(19.641498,0)"
               width="744.09448"
               height="1052.3622" />
          </g>
          <use
             height="1052.3622"
             width="744.09448"
             transform="translate(30,0)"
             id="use13772"
             xlink:href="#g13764"
             y="0"
             x="0" />
          <use
             height="1052.3622"
             width="744.09448"
             transform="translate(30,0)"
             id="use13774"
             xlink:href="#use13772"
             y="0"
             x="0" />
          <use
             height="1052.3622"
             width="744.09448"
             transform="translate(30,0)"
             id="use13776"
             xlink:href="#use13774"
             y="0"
             x="0" />
          <use
             height="1052.3622"
             width="744.09448"
             transform="translate(30,0)"
             id="use13778"
             xlink:href="#use13776"
             y="0"
             x="0" />
          <use
             height="1052.3622"
             width="744.09448"
             transform="translate(30,0)"
             id="use13780"
             xlink:href="#use13778"
             y="0"
             x="0" />
          <use
             height="1052.3622"
             width="744.09448"
             transform="matrix(1,0,0,-1,0,945.57521)"
             id="use13782"
             xlink:href="#use13780"
             y="0"
             x="0" />
          <use
             height="1052.3622"
             width="744.09448"
             transform="translate(-30,0)"
             id="use13784"
             xlink:href="#use13782"
             y="0"
             x="0" />
          <use
             height="1052.3622"
             width="744.09448"
             transform="translate(-30,0)"
             id="use13786"
             xlink:href="#use13784"
             y="0"
             x="0" />
          <use
             height="1052.3622"
             width="744.09448"
             transform="translate(-30,0)"
             id="use13788"
             xlink:href="#use13786"
             y="0"
             x="0" />
          <use
             height="1052.3622"
             width="744.09448"
             transform="translate(-30,0)"
             id="use13790"
             xlink:href="#use13788"
             y="0"
             x="0" />
          <use
             height="1052.3622"
             width="744.09448"
             transform="translate(-30,0)"
             id="use13792"
             xlink:href="#use13790"
             y="0"
             x="0" />
          <use
             id="use13794"
             xlink:href="#use13792"
             y="0"
             x="0"
             width="744.09448"
             height="1052.3622" />
        </g>
        <text
           xml:space="preserve"
           style="font-size:2.76239586px;font-style:normal;font-weight:normal;fill:#000000;fill-opacity:1;stroke:none;stroke-width:1px;stroke-linecap:butt;stroke-linejoin:miter;stroke-opacity:1;font-family:Bitstream Vera Sans"
           x="295.82605"
           y="439.68497"
           id="text13822"><tspan
             sodipodi:role="line"
             id="tspan13824"
             x="295.82605"
             y="439.68497">Speed</tspan></text>
        <use
           x="0"
           y="0"
           xlink:href="#text13822"
           id="use13826"
           transform="translate(0,61.494924)"
           width="744.09448"
           height="1052.3622" />
        <text
           id="text13828"
           y="439.68497"
           x="469.82605"
           style="font-size:2.76239586px;font-style:normal;font-weight:normal;fill:#000000;fill-opacity:1;stroke:none;stroke-width:1px;stroke-linecap:butt;stroke-linejoin:miter;stroke-opacity:1;font-family:Bitstream Vera Sans"
           xml:space="preserve"><tspan
             y="439.68497"
             x="469.82605"
             id="tspan13830"
             sodipodi:role="line">Lnk/Act</tspan></text>
        <use
           x="0"
           y="0"
           xlink:href="#text13828"
           id="use13832"
           transform="translate(0,61.813247)"
           width="744.09448"
           height="1052.3622" />
      </g>
      <text
         id="text13834"
         y="437.4115"
         x="310.21603"
         style="font-size:8px;font-style:normal;font-variant:normal;font-weight:normal;font-stretch:normal;fill:#000000;fill-opacity:1;stroke:none;stroke-width:1px;stroke-linecap:butt;stroke-linejoin:miter;stroke-opacity:1;font-family:Arial;-inkscape-font-specification:Arial"
         xml:space="preserve"><tspan
           y="437.4115"
           x="310.21603"
           id="tspan13836"
           sodipodi:role="line">1</tspan></text>
      <text
         xml:space="preserve"
         style="font-size:8px;font-style:normal;font-variant:normal;font-weight:normal;font-stretch:normal;fill:#000000;fill-opacity:1;stroke:none;stroke-width:1px;stroke-linecap:butt;stroke-linejoin:miter;stroke-opacity:1;font-family:Arial;-inkscape-font-specification:Arial"
         x="340.07629"
         y="437.4115"
         id="text13838"><tspan
           sodipodi:role="line"
           id="tspan13840"
           x="340.07629"
           y="437.4115">3</tspan></text>
      <text
         id="text13842"
         y="437.4115"
         x="370.05676"
         style="font-size:8px;font-style:normal;font-variant:normal;font-weight:normal;font-stretch:normal;fill:#000000;fill-opacity:1;stroke:none;stroke-width:1px;stroke-linecap:butt;stroke-linejoin:miter;stroke-opacity:1;font-family:Arial;-inkscape-font-specification:Arial"
         xml:space="preserve"><tspan
           y="437.4115"
           x="370.05676"
           id="tspan13844"
           sodipodi:role="line">5</tspan></text>
      <text
         xml:space="preserve"
         style="font-size:8px;font-style:normal;font-variant:normal;font-weight:normal;font-stretch:normal;fill:#000000;fill-opacity:1;stroke:none;stroke-width:1px;stroke-linecap:butt;stroke-linejoin:miter;stroke-opacity:1;font-family:Arial;-inkscape-font-specification:Arial"
         x="400.05481"
         y="437.4115"
         id="text13846"><tspan
           sodipodi:role="line"
           id="tspan13848"
           x="400.05481"
           y="437.4115">7</tspan></text>
      <text
         id="text13850"
         y="437.4115"
         x="430.07239"
         style="font-size:8px;font-style:normal;font-variant:normal;font-weight:normal;font-stretch:normal;fill:#000000;fill-opacity:1;stroke:none;stroke-width:1px;stroke-linecap:butt;stroke-linejoin:miter;stroke-opacity:1;font-family:Arial;-inkscape-font-specification:Arial"
         xml:space="preserve"><tspan
           y="437.4115"
           x="430.07239"
           id="tspan13852"
           sodipodi:role="line">9</tspan></text>
      <text
         xml:space="preserve"
         style="font-size:8px;font-style:normal;font-variant:normal;font-weight:normal;font-stretch:normal;fill:#000000;fill-opacity:1;stroke:none;stroke-width:1px;stroke-linecap:butt;stroke-linejoin:miter;stroke-opacity:1;font-family:Arial;-inkscape-font-specification:Arial"
         x="458.43176"
         y="437.4115"
         id="text13854"><tspan
           sodipodi:role="line"
           id="tspan13856"
           x="458.43176"
           y="437.4115">11</tspan></text>
      <text
         id="text13858"
         y="507.4115"
         x="457.61145"
         style="font-size:8px;font-style:normal;font-variant:normal;font-weight:normal;font-stretch:normal;fill:#000000;fill-opacity:1;stroke:none;stroke-width:1px;stroke-linecap:butt;stroke-linejoin:miter;stroke-opacity:1;font-family:Arial;-inkscape-font-specification:Arial"
         xml:space="preserve"><tspan
           y="507.4115"
           x="457.61145"
           id="tspan13860"
           sodipodi:role="line">12</tspan></text>
      <text
         xml:space="preserve"
         style="font-size:8px;font-style:normal;font-variant:normal;font-weight:normal;font-stretch:normal;fill:#000000;fill-opacity:1;stroke:none;stroke-width:1px;stroke-linecap:butt;stroke-linejoin:miter;stroke-opacity:1;font-family:Arial;-inkscape-font-specification:Arial"
         x="427.59192"
         y="507.4115"
         id="text13862"><tspan
           sodipodi:role="line"
           id="tspan13864"
           x="427.59192"
           y="507.4115">10</tspan></text>
      <text
         id="text13866"
         y="507.4115"
         x="400.07629"
         style="font-size:8px;font-style:normal;font-variant:normal;font-weight:normal;font-stretch:normal;fill:#000000;fill-opacity:1;stroke:none;stroke-width:1px;stroke-linecap:butt;stroke-linejoin:miter;stroke-opacity:1;font-family:Arial;-inkscape-font-specification:Arial"
         xml:space="preserve"><tspan
           y="507.4115"
           x="400.07629"
           id="tspan13868"
           sodipodi:role="line">8</tspan></text>
      <text
         xml:space="preserve"
         style="font-size:8px;font-style:normal;font-variant:normal;font-weight:normal;font-stretch:normal;fill:#000000;fill-opacity:1;stroke:none;stroke-width:1px;stroke-linecap:butt;stroke-linejoin:miter;stroke-opacity:1;font-family:Arial;-inkscape-font-specification:Arial"
         x="370.09583"
         y="507.4115"
         id="text13870"><tspan
           sodipodi:role="line"
           id="tspan13872"
           x="370.09583"
           y="507.4115">6</tspan></text>
      <text
         id="text13874"
         y="507.4115"
         x="340.2052"
         style="font-size:8px;font-style:normal;font-variant:normal;font-weight:normal;font-stretch:normal;fill:#000000;fill-opacity:1;stroke:none;stroke-width:1px;stroke-linecap:butt;stroke-linejoin:miter;stroke-opacity:1;font-family:Arial;-inkscape-font-specification:Arial"
         xml:space="preserve"><tspan
           y="507.4115"
           x="340.2052"
           id="tspan13876"
           sodipodi:role="line">4</tspan></text>
      <text
         xml:space="preserve"
         style="font-size:8px;font-style:normal;font-variant:normal;font-weight:normal;font-stretch:normal;fill:#000000;fill-opacity:1;stroke:none;stroke-width:1px;stroke-linecap:butt;stroke-linejoin:miter;stroke-opacity:1;font-family:Arial;-inkscape-font-specification:Arial"
         x="310.15637"
         y="507.4115"
         id="text13878"><tspan
           sodipodi:role="line"
           id="tspan13880"
           x="310.15637"
           y="507.4115">2</tspan></text>
      <path
         sodipodi:nodetypes="ccccccc"
         id="path14009"
         d="M 643.73186,427.86272 L 674.78783,427.86272 L 674.78783,468.15822 L 765.1784,468.15822 L 765.1784,511.42855 L 643.73186,511.42855 L 643.73186,427.86272 z"
         style="fill:none;fill-rule:evenodd;stroke:#000000;stroke-width:0.72431272;stroke-linecap:butt;stroke-linejoin:miter;stroke-miterlimit:4;stroke-dasharray:none;stroke-opacity:1" />
      <use
         height="1052.3622"
         width="744.09448"
         transform="translate(191.00039,0)"
         id="use13915"
         xlink:href="#g13886"
         y="0"
         x="0" />
      <text
         xml:space="preserve"
         style="font-size:8px;font-style:normal;font-variant:normal;font-weight:normal;font-stretch:normal;fill:#000000;fill-opacity:1;stroke:none;stroke-width:1px;stroke-linecap:butt;stroke-linejoin:miter;stroke-opacity:1;font-family:Arial;-inkscape-font-specification:Arial"
         x="498.21603"
         y="437.4115"
         id="text13917"><tspan
           sodipodi:role="line"
           id="tspan13919"
           x="498.21603"
           y="437.4115">13</tspan></text>
      <text
         id="text13921"
         y="437.4115"
         x="528.07629"
         style="font-size:8px;font-style:normal;font-variant:normal;font-weight:normal;font-stretch:normal;fill:#000000;fill-opacity:1;stroke:none;stroke-width:1px;stroke-linecap:butt;stroke-linejoin:miter;stroke-opacity:1;font-family:Arial;-inkscape-font-specification:Arial"
         xml:space="preserve"><tspan
           y="437.4115"
           x="528.07629"
           id="tspan13923"
           sodipodi:role="line">15</tspan></text>
      <text
         xml:space="preserve"
         style="font-size:8px;font-style:normal;font-variant:normal;font-weight:normal;font-stretch:normal;fill:#000000;fill-opacity:1;stroke:none;stroke-width:1px;stroke-linecap:butt;stroke-linejoin:miter;stroke-opacity:1;font-family:Arial;-inkscape-font-specification:Arial"
         x="558.05676"
         y="437.4115"
         id="text13925"><tspan
           sodipodi:role="line"
           id="tspan13927"
           x="558.05676"
           y="437.4115">17</tspan></text>
      <text
         id="text13929"
         y="437.4115"
         x="588.05481"
         style="font-size:8px;font-style:normal;font-variant:normal;font-weight:normal;font-stretch:normal;fill:#000000;fill-opacity:1;stroke:none;stroke-width:1px;stroke-linecap:butt;stroke-linejoin:miter;stroke-opacity:1;font-family:Arial;-inkscape-font-specification:Arial"
         xml:space="preserve"><tspan
           y="437.4115"
           x="588.05481"
           id="tspan13931"
           sodipodi:role="line">19</tspan></text>
      <text
         xml:space="preserve"
         style="font-size:8px;font-style:normal;font-variant:normal;font-weight:normal;font-stretch:normal;fill:#000000;fill-opacity:1;stroke:none;stroke-width:1px;stroke-linecap:butt;stroke-linejoin:miter;stroke-opacity:1;font-family:Arial;-inkscape-font-specification:Arial"
         x="620.07239"
         y="437.4115"
         id="text13933"><tspan
           sodipodi:role="line"
           id="tspan13935"
           x="620.07239"
           y="437.4115">21</tspan></text>
      <text
         id="text13937"
         y="437.4115"
         x="648.43176"
         style="font-size:8px;font-style:normal;font-variant:normal;font-weight:normal;font-stretch:normal;fill:#000000;fill-opacity:1;stroke:none;stroke-width:1px;stroke-linecap:butt;stroke-linejoin:miter;stroke-opacity:1;font-family:Arial;-inkscape-font-specification:Arial"
         xml:space="preserve"><tspan
           y="437.4115"
           x="648.43176"
           id="tspan13939"
           sodipodi:role="line">23</tspan></text>
      <text
         xml:space="preserve"
         style="font-size:8px;font-style:normal;font-variant:normal;font-weight:normal;font-stretch:normal;fill:#000000;fill-opacity:1;stroke:none;stroke-width:1px;stroke-linecap:butt;stroke-linejoin:miter;stroke-opacity:1;font-family:Arial;-inkscape-font-specification:Arial"
         x="648.44348"
         y="507.4115"
         id="text13941"><tspan
           sodipodi:role="line"
           id="tspan13943"
           x="648.44348"
           y="507.4115">24</tspan></text>
      <text
         id="text13945"
         y="507.4115"
         x="619.54895"
         style="font-size:8px;font-style:normal;font-variant:normal;font-weight:normal;font-stretch:normal;fill:#000000;fill-opacity:1;stroke:none;stroke-width:1px;stroke-linecap:butt;stroke-linejoin:miter;stroke-opacity:1;font-family:Arial;-inkscape-font-specification:Arial"
         xml:space="preserve"><tspan
           y="507.4115"
           x="619.54895"
           id="tspan13947"
           sodipodi:role="line">22</tspan></text>
      <text
         xml:space="preserve"
         style="font-size:8px;font-style:normal;font-variant:normal;font-weight:normal;font-stretch:normal;fill:#000000;fill-opacity:1;stroke:none;stroke-width:1px;stroke-linecap:butt;stroke-linejoin:miter;stroke-opacity:1;font-family:Arial;-inkscape-font-specification:Arial"
         x="588.38879"
         y="507.4115"
         id="text13949"><tspan
           sodipodi:role="line"
           id="tspan13951"
           x="588.38879"
           y="507.4115">20</tspan></text>
      <text
         id="text13953"
         y="507.4115"
         x="558.0509"
         style="font-size:8px;font-style:normal;font-variant:normal;font-weight:normal;font-stretch:normal;fill:#000000;fill-opacity:1;stroke:none;stroke-width:1px;stroke-linecap:butt;stroke-linejoin:miter;stroke-opacity:1;font-family:Arial;-inkscape-font-specification:Arial"
         xml:space="preserve"><tspan
           y="507.4115"
           x="558.0509"
           id="tspan13955"
           sodipodi:role="line">18</tspan></text>
      <text
         xml:space="preserve"
         style="font-size:8px;font-style:normal;font-variant:normal;font-weight:normal;font-stretch:normal;fill:#000000;fill-opacity:1;stroke:none;stroke-width:1px;stroke-linecap:butt;stroke-linejoin:miter;stroke-opacity:1;font-family:Arial;-inkscape-font-specification:Arial"
         x="528.09973"
         y="507.4115"
         id="text13957"><tspan
           sodipodi:role="line"
           id="tspan13959"
           x="528.09973"
           y="507.4115">16</tspan></text>
      <text
         id="text13961"
         y="507.4115"
         x="498.22775"
         style="font-size:8px;font-style:normal;font-variant:normal;font-weight:normal;font-stretch:normal;fill:#000000;fill-opacity:1;stroke:none;stroke-width:1px;stroke-linecap:butt;stroke-linejoin:miter;stroke-opacity:1;font-family:Arial;-inkscape-font-specification:Arial"
         xml:space="preserve"><tspan
           y="507.4115"
           x="498.22775"
           id="tspan13963"
           sodipodi:role="line">14</tspan></text>
      <g
         id="g14129">
        <text
           id="use13989"
           y="496.76312"
           x="674.66711"
           style="font-size:2.76239586px;font-style:normal;font-variant:normal;font-weight:normal;font-stretch:normal;text-align:start;line-height:89.99999762%;writing-mode:lr-tb;text-anchor:start;fill:#000000;fill-opacity:1;stroke:none;stroke-width:1px;stroke-linecap:butt;stroke-linejoin:miter;stroke-opacity:1;font-family:Bitstream Vera Sans;-inkscape-font-specification:Bitstream Vera Sans"
           xml:space="preserve"
           sodipodi:linespacing="89.999998%"><tspan
             y="496.76312"
             x="674.66711"
             id="tspan13993"
             sodipodi:role="line">Lnk/</tspan><tspan
             y="499.24927"
             x="674.66711"
             sodipodi:role="line"
             id="tspan13995">Act</tspan></text>
        <text
           sodipodi:linespacing="89.999998%"
           xml:space="preserve"
           style="font-size:2.76239586px;font-style:normal;font-variant:normal;font-weight:normal;font-stretch:normal;text-align:start;line-height:89.99999762%;writing-mode:lr-tb;text-anchor:start;fill:#000000;fill-opacity:1;stroke:none;stroke-width:1px;stroke-linecap:butt;stroke-linejoin:miter;stroke-opacity:1;font-family:Bitstream Vera Sans;-inkscape-font-specification:Bitstream Vera Sans"
           x="673.0459"
           y="479.8161"
           id="text13997"><tspan
             id="tspan14001"
             sodipodi:role="line"
             x="673.0459"
             y="479.8161">In Use</tspan></text>
        <use
           x="0"
           y="0"
           xlink:href="#use13693"
           id="use13985"
           transform="matrix(0.6981132,0,0,0.6981132,749.85412,146.53119)"
           width="744.09448"
           height="1052.3622" />
        <use
           x="0"
           y="0"
           xlink:href="#use13699"
           id="use13987"
           transform="matrix(0.6981132,0,0,0.6981132,749.85412,146.53119)"
           width="744.09448"
           height="1052.3622" />
      </g>
      <text
         transform="scale(0.946999,1.0559673)"
         sodipodi:linespacing="100%"
         id="text14005"
         y="409.26279"
         x="715.63861"
         style="font-size:8.52299118px;font-style:normal;font-variant:normal;font-weight:normal;font-stretch:normal;text-align:start;line-height:100%;writing-mode:lr-tb;text-anchor:start;fill:#000000;fill-opacity:1;stroke:none;stroke-width:1px;stroke-linecap:butt;stroke-linejoin:miter;stroke-opacity:1;font-family:Arial;-inkscape-font-specification:Arial"
         xml:space="preserve"><tspan
           y="409.26279"
           x="715.63861"
           id="tspan14007"
           sodipodi:role="line">Baystack 5510-24T Switch</tspan></text>
      <g
         inkscape:label="Calque 1"
         id="g14099"
         transform="matrix(0.1992345,0,0,0.1992345,712.54753,368.51861)">
        <g
           transform="matrix(34.974126,0,0,34.974126,220.53698,739.19851)"
           id="g12850">
          <path
             transform="matrix(5.4002927e-2,0,0,5.4002927e-2,-123.1772,154.69792)"
             d="M 2327,-3042 C 2322,-3041 2319,-3038 2319,-3030 C 2319,-3030 2319,-3030 2319,-3030 C 2319,-3030 2319,-3030 2319,-3030 C 2319,-3030 2319,-3030 2319,-3030 C 2320,-2951 2320,-2951 2320,-2951 C 2319,-2945 2324,-2940 2328,-2939 C 2361,-2935 2361,-2935 2361,-2935 C 2366,-2934 2373,-2942 2373,-2948 C 2374,-3035 2374,-3035 2374,-3035 C 2374,-3042 2367,-3049 2361,-3048 L 2327,-3042 z"
             id="path12823"
             style="fill:#000000;fill-rule:evenodd;stroke:none;stroke-width:14.23900032;display:inline;enable-background:new" />
          <path
             transform="matrix(5.4002927e-2,0,0,5.4002927e-2,-123.1772,154.69792)"
             d="M 2328,-3040 C 2323,-3039 2321,-3036 2321,-3029 C 2321,-3029 2321,-3029 2321,-3029 C 2321,-3029 2321,-3029 2321,-3029 C 2321,-3029 2321,-3029 2321,-3029 C 2321,-2952 2321,-2952 2321,-2952 C 2321,-2946 2325,-2942 2329,-2941 C 2360,-2937 2360,-2937 2360,-2937 C 2364,-2936 2372,-2944 2372,-2950 C 2372,-3033 2372,-3033 2372,-3033 C 2372,-3040 2366,-3047 2360,-3046 L 2328,-3040 z"
             id="path12819"
             style="fill:#ffffff;fill-rule:evenodd;stroke:none;stroke-width:14.23900032;display:inline;enable-background:new" />
          <path
             transform="matrix(5.4002927e-2,0,0,5.4002927e-2,-123.1772,154.69792)"
             d="M 2332,-3036 C 2328,-3035 2326,-3032 2326,-3026 C 2326,-3026 2326,-3026 2326,-3026 C 2326,-3026 2326,-3026 2326,-3026 C 2326,-3026 2326,-3026 2326,-3026 C 2326,-2956 2326,-2956 2326,-2956 C 2326,-2951 2330,-2947 2332,-2946 C 2357,-2942 2357,-2942 2357,-2942 C 2361,-2942 2367,-2947 2367,-2952 C 2367,-3029 2367,-3029 2367,-3029 C 2367,-3036 2364,-3042 2359,-3041 L 2332,-3036 z"
             id="path12815"
             style="fill:#000000;fill-rule:evenodd;stroke:none;stroke-width:14.23900032;display:inline;enable-background:new" />
          <path
             d="M 2358,-3055 L 2346,-3048 L 2335,-3055 L 2335,-3069 L 2346,-3075 L 2358,-3069 L 2358,-3055 z"
             id="path415"
             style="fill:#ffffff;fill-rule:evenodd;stroke:#000000;stroke-width:4;display:inline;enable-background:new"
             transform="matrix(5.4003467e-2,0,0,5.4003467e-2,-123.1772,154.69792)" />
          <path
             d="M 2358,-3055 L 2346,-3048 L 2335,-3055 L 2335,-3069 L 2346,-3075 L 2358,-3069 L 2358,-3055 z"
             id="path419"
             style="fill:#ffffff;fill-rule:evenodd;stroke:none;stroke-width:14.23900032;display:inline;enable-background:new"
             transform="matrix(5.4003467e-2,0,0,5.4003467e-2,-123.1772,154.69792)" />
          <path
             transform="matrix(5.4002927e-2,0,0,5.4002927e-2,-123.1772,154.69792)"
             d="M 2355,-3062 C 2355,-3058 2351,-3054 2346,-3054 C 2342,-3054 2338,-3058 2338,-3062 C 2338,-3067 2342,-3070 2346,-3070 C 2351,-3070 2355,-3067 2355,-3062 z"
             id="path12807"
             style="fill:#000000;fill-rule:evenodd;stroke:none;stroke-width:14.23900032;display:inline;enable-background:new" />
          <path
             d="M 2358,-2914 L 2346,-2908 L 2335,-2914 L 2335,-2928 L 2346,-2935 L 2358,-2928 L 2358,-2914 z"
             id="path434"
             style="fill:#ffffff;fill-rule:evenodd;stroke:#000000;stroke-width:4;display:inline;enable-background:new"
             transform="matrix(5.4003467e-2,0,0,5.4003467e-2,-123.1772,154.69792)" />
          <path
             d="M 2358,-2914 L 2346,-2908 L 2335,-2914 L 2335,-2928 L 2346,-2935 L 2358,-2928 L 2358,-2914 z"
             id="path438"
             style="fill:#ffffff;fill-rule:evenodd;stroke:none;stroke-width:14.23900032;display:inline;enable-background:new"
             transform="matrix(5.4003467e-2,0,0,5.4003467e-2,-123.1772,154.69792)" />
          <path
             transform="matrix(5.4002927e-2,0,0,5.4002927e-2,-123.1772,154.69792)"
             d="M 2355,-2921 C 2355,-2917 2351,-2913 2346,-2913 C 2342,-2913 2338,-2917 2338,-2921 C 2338,-2926 2342,-2930 2346,-2930 C 2351,-2930 2355,-2926 2355,-2921 z"
             id="path12811"
             style="fill:#000000;fill-rule:evenodd;stroke:none;stroke-width:14.23900032;display:inline;enable-background:new" />
          <path
             transform="matrix(2.1313709,0,0,2.9697975,-3.5966346,12.84152)"
             d="M 3.2578243,-6.4633002 A 0.10509124,0.073563866 0 1 1 3.0476419,-6.4633002 A 0.10509124,0.073563866 0 1 1 3.2578243,-6.4633002 z"
             sodipodi:ry="0.073563866"
             sodipodi:rx="0.10509124"
             sodipodi:cy="-6.4633002"
             sodipodi:cx="3.1527331"
             id="path12011"
             style="fill:#ffffff;fill-opacity:1;fill-rule:evenodd;stroke:none;stroke-width:1px;stroke-linecap:butt;stroke-linejoin:miter;stroke-opacity:1"
             sodipodi:type="arc" />
          <path
             sodipodi:type="arc"
             style="fill:#ffffff;fill-opacity:1;fill-rule:evenodd;stroke:none;stroke-width:1px;stroke-linecap:butt;stroke-linejoin:miter;stroke-opacity:1"
             id="use12783"
             sodipodi:cx="3.1527331"
             sodipodi:cy="-6.4633002"
             sodipodi:rx="0.10509124"
             sodipodi:ry="0.073563866"
             d="M 3.2578243,-6.4633002 A 0.10509124,0.073563866 0 1 1 3.0476419,-6.4633002 A 0.10509124,0.073563866 0 1 1 3.2578243,-6.4633002 z"
             transform="matrix(2.1313709,0,0,2.9697975,-3.5966346,13.797614)" />
          <path
             sodipodi:type="arc"
             style="fill:#ffffff;fill-opacity:1;fill-rule:evenodd;stroke:none;stroke-width:1px;stroke-linecap:butt;stroke-linejoin:miter;stroke-opacity:1"
             id="use12785"
             sodipodi:cx="3.1527331"
             sodipodi:cy="-6.4633002"
             sodipodi:rx="0.10509124"
             sodipodi:ry="0.073563866"
             d="M 3.2578243,-6.4633002 A 0.10509124,0.073563866 0 1 1 3.0476419,-6.4633002 A 0.10509124,0.073563866 0 1 1 3.2578243,-6.4633002 z"
             transform="matrix(2.1313709,0,0,2.9697975,-3.5966346,11.885429)" />
          <path
             sodipodi:type="arc"
             style="fill:#ffffff;fill-opacity:1;fill-rule:evenodd;stroke:none;stroke-width:1px;stroke-linecap:butt;stroke-linejoin:miter;stroke-opacity:1"
             id="use12787"
             sodipodi:cx="3.1527331"
             sodipodi:cy="-6.4633002"
             sodipodi:rx="0.10509124"
             sodipodi:ry="0.073563866"
             d="M 3.2578243,-6.4633002 A 0.10509124,0.073563866 0 1 1 3.0476419,-6.4633002 A 0.10509124,0.073563866 0 1 1 3.2578243,-6.4633002 z"
             transform="matrix(2.1313709,0,0,2.9697975,-3.5966346,10.929336)" />
          <path
             sodipodi:type="arc"
             style="fill:#ffffff;fill-opacity:1;fill-rule:evenodd;stroke:none;stroke-width:1px;stroke-linecap:butt;stroke-linejoin:miter;stroke-opacity:1"
             id="use12789"
             sodipodi:cx="3.1527331"
             sodipodi:cy="-6.4633002"
             sodipodi:rx="0.10509124"
             sodipodi:ry="0.073563866"
             d="M 3.2578243,-6.4633002 A 0.10509124,0.073563866 0 1 1 3.0476419,-6.4633002 A 0.10509124,0.073563866 0 1 1 3.2578243,-6.4633002 z"
             transform="matrix(2.1313709,0,0,2.9697975,-2.7792166,13.319568)" />
          <path
             sodipodi:type="arc"
             style="fill:#ffffff;fill-opacity:1;fill-rule:evenodd;stroke:none;stroke-width:1px;stroke-linecap:butt;stroke-linejoin:miter;stroke-opacity:1"
             id="use12791"
             sodipodi:cx="3.1527331"
             sodipodi:cy="-6.4633002"
             sodipodi:rx="0.10509124"
             sodipodi:ry="0.073563866"
             d="M 3.2578243,-6.4633002 A 0.10509124,0.073563866 0 1 1 3.0476419,-6.4633002 A 0.10509124,0.073563866 0 1 1 3.2578243,-6.4633002 z"
             transform="matrix(2.1313709,0,0,2.9697975,-2.7792166,12.363475)" />
          <path
             sodipodi:type="arc"
             style="fill:#ffffff;fill-opacity:1;fill-rule:evenodd;stroke:none;stroke-width:1px;stroke-linecap:butt;stroke-linejoin:miter;stroke-opacity:1"
             id="use12793"
             sodipodi:cx="3.1527331"
             sodipodi:cy="-6.4633002"
             sodipodi:rx="0.10509124"
             sodipodi:ry="0.073563866"
             d="M 3.2578243,-6.4633002 A 0.10509124,0.073563866 0 1 1 3.0476419,-6.4633002 A 0.10509124,0.073563866 0 1 1 3.2578243,-6.4633002 z"
             transform="matrix(2.1313709,0,0,2.9697975,-2.7792166,11.407382)" />
          <path
             sodipodi:type="arc"
             style="fill:#ffffff;fill-opacity:1;fill-rule:evenodd;stroke:none;stroke-width:1px;stroke-linecap:butt;stroke-linejoin:miter;stroke-opacity:1"
             id="use12795"
             sodipodi:cx="3.1527331"
             sodipodi:cy="-6.4633002"
             sodipodi:rx="0.10509124"
             sodipodi:ry="0.073563866"
             d="M 3.2578243,-6.4633002 A 0.10509124,0.073563866 0 1 1 3.0476419,-6.4633002 A 0.10509124,0.073563866 0 1 1 3.2578243,-6.4633002 z"
             transform="matrix(2.1313709,0,0,2.9697975,-2.7792166,10.451291)" />
          <path
             sodipodi:type="arc"
             style="fill:#ffffff;fill-opacity:1;fill-rule:evenodd;stroke:none;stroke-width:1px;stroke-linecap:butt;stroke-linejoin:miter;stroke-opacity:1"
             id="use12797"
             sodipodi:cx="3.1527331"
             sodipodi:cy="-6.4633002"
             sodipodi:rx="0.10509124"
             sodipodi:ry="0.073563866"
             d="M 3.2578243,-6.4633002 A 0.10509124,0.073563866 0 1 1 3.0476419,-6.4633002 A 0.10509124,0.073563866 0 1 1 3.2578243,-6.4633002 z"
             transform="matrix(2.1313709,0,0,2.9697975,-2.7792166,14.27566)" />
        </g>
      </g>
      <text
         id="text14120"
         y="508.16281"
         x="769.23114"
         style="font-size:6px;font-style:normal;font-weight:normal;fill:#000000;fill-opacity:1;stroke:none;stroke-width:1px;stroke-linecap:butt;stroke-linejoin:miter;stroke-opacity:1;font-family:Bitstream Vera Sans"
         xml:space="preserve"><tspan
           y="508.16281"
           x="769.23114"
           id="tspan14122"
           sodipodi:role="line">Console</tspan></text>
      <use
         height="1052.3622"
         width="744.09448"
         transform="translate(80,0)"
         id="use14138"
         xlink:href="#g14129"
         y="0"
         x="0" />
      <g
         transform="translate(-2,40)"
         id="g14144">
        <rect
           style="opacity:1;fill:#000000;fill-opacity:1;stroke:#ffffff;stroke-width:0.73125112;stroke-miterlimit:4;stroke-dasharray:none;stroke-opacity:1"
           id="rect14140"
           width="31.030939"
           height="21.687027"
           x="685.5304"
           y="437.10107" />
        <path
           style="fill:none;fill-rule:evenodd;stroke:#ffffff;stroke-width:1.20000005;stroke-linecap:butt;stroke-linejoin:miter;stroke-miterlimit:4;stroke-dasharray:none;stroke-opacity:1"
           d="M 695.6163,457.52518 L 706.47544,457.52518"
           id="path14142" />
      </g>
      <use
         height="1052.3622"
         width="744.09448"
         transform="translate(36,0)"
         id="use14148"
         xlink:href="#g14144"
         y="0"
         x="0" />
      <text
         xml:space="preserve"
         style="font-size:8px;font-style:normal;font-variant:normal;font-weight:normal;font-stretch:normal;fill:#000000;fill-opacity:1;stroke:none;stroke-width:1px;stroke-linecap:butt;stroke-linejoin:miter;stroke-opacity:1;font-family:Arial;-inkscape-font-specification:Arial"
         x="694.43176"
         y="507.4115"
         id="text14154"><tspan
           sodipodi:role="line"
           id="tspan14156"
           x="694.43176"
           y="507.4115">23</tspan></text>
      <text
         id="text14158"
         y="507.4115"
         x="730.43176"
         style="font-size:8px;font-style:normal;font-variant:normal;font-weight:normal;font-stretch:normal;fill:#000000;fill-opacity:1;stroke:none;stroke-width:1px;stroke-linecap:butt;stroke-linejoin:miter;stroke-opacity:1;font-family:Arial;-inkscape-font-specification:Arial"
         xml:space="preserve"><tspan
           y="507.4115"
           x="730.43176"
           id="tspan14160"
           sodipodi:role="line">24</tspan></text>
    </g>
  </g>
</svg>
