<?xml version="1.0" encoding="UTF-8" standalone="no"?>
<!-- Created with Inkscape (http://www.inkscape.org/) -->
<svg
   xmlns:dc="http://purl.org/dc/elements/1.1/"
   xmlns:cc="http://creativecommons.org/ns#"
   xmlns:rdf="http://www.w3.org/1999/02/22-rdf-syntax-ns#"
   xmlns:svg="http://www.w3.org/2000/svg"
   xmlns="http://www.w3.org/2000/svg"
   xmlns:xlink="http://www.w3.org/1999/xlink"
   xmlns:sodipodi="http://sodipodi.sourceforge.net/DTD/sodipodi-0.dtd"
   xmlns:inkscape="http://www.inkscape.org/namespaces/inkscape"
   width="871.61438"
   height="235.79518"
   id="svg2"
   sodipodi:version="0.32"
   inkscape:version="0.46"
   sodipodi:docname="Nortel-1-10Gb-Uplink.svg"
   inkscape:output_extension="org.inkscape.output.svg.inkscape"
   version="1.0">
  <defs
     id="defs4">
    <inkscape:perspective
       sodipodi:type="inkscape:persp3d"
       inkscape:vp_x="0 : 526.18109 : 1"
       inkscape:vp_y="0 : 1000 : 0"
       inkscape:vp_z="744.09448 : 526.18109 : 1"
       inkscape:persp3d-origin="372.04724 : 350.78739 : 1"
       id="perspective10" />
    <inkscape:perspective
       id="perspective2447"
       inkscape:persp3d-origin="372.04724 : 350.78739 : 1"
       inkscape:vp_z="744.09448 : 526.18109 : 1"
       inkscape:vp_y="0 : 1000 : 0"
       inkscape:vp_x="0 : 526.18109 : 1"
       sodipodi:type="inkscape:persp3d" />
    <inkscape:perspective
       id="perspective11982"
       inkscape:persp3d-origin="372.04724 : 350.78739 : 1"
       inkscape:vp_z="744.09448 : 526.18109 : 1"
       inkscape:vp_y="0 : 1000 : 0"
       inkscape:vp_x="0 : 526.18109 : 1"
       sodipodi:type="inkscape:persp3d" />
  </defs>
  <sodipodi:namedview
     id="base"
     pagecolor="#ffffff"
     bordercolor="#666666"
     borderopacity="1.0"
     inkscape:pageopacity="0.0"
     inkscape:pageshadow="2"
     inkscape:zoom="0.66604531"
     inkscape:cx="278.01679"
     inkscape:cy="327.08455"
     inkscape:document-units="px"
     inkscape:current-layer="layer1"
     showgrid="false"
     inkscape:window-width="1280"
     inkscape:window-height="1024"
     inkscape:window-x="0"
     inkscape:window-y="0" />
  <metadata
     id="metadata7">
    <rdf:RDF>
      <cc:Work
         rdf:about="">
        <dc:format>image/svg+xml</dc:format>
        <dc:type
           rdf:resource="http://purl.org/dc/dcmitype/StillImage" />
      </cc:Work>
    </rdf:RDF>
  </metadata>
  <g
     inkscape:label="Calque 1"
     inkscape:groupmode="layer"
     id="layer1"
     transform="translate(381.87131,-172.18197)">
    <text
       xml:space="preserve"
       style="font-size:30px;font-style:normal;font-variant:normal;font-weight:normal;font-stretch:normal;fill:#000000;fill-opacity:1;stroke:none;stroke-width:1px;stroke-linecap:butt;stroke-linejoin:miter;stroke-opacity:1;font-family:Arial;-inkscape-font-specification:Arial"
       x="285.87317"
       y="288.68686"
       id="text4453"><tspan
         sodipodi:role="line"
         id="tspan4455"
         x="285.87317"
         y="288.68686" /></text>
    <g
       id="g3759"
       transform="matrix(0,-1,1,0,-236.14369,344.01543)">
      <rect
         y="-144.71326"
         x="-63.052532"
         height="870"
         width="234.28572"
         id="rect2453"
         style="fill:#ffffff;fill-opacity:1;stroke:#000000;stroke-width:1.20000005;stroke-linecap:round;stroke-miterlimit:4;stroke-dasharray:none;stroke-opacity:1" />
      <path
         sodipodi:nodetypes="ccccccccccccczcccc"
         id="rect3381"
         d="M -63.352154,-103.76295 L 144.92512,-103.76295 L 144.92512,-64.438134 L 171.53308,-64.438134 L 171.53308,-8.0921337 L 144.92512,-8.0921337 L 144.92512,46.536444 L 171.53308,46.536444 L 171.53308,131.41768 L 156.51909,131.46982 L 146.00929,142.7825 L 146.00929,174.09519 L 156.51909,185.40787 C 156.51909,185.40787 171.53308,184.70935 171.53308,185.46005 L 171.53308,640.70512 L 171.53308,725.58636 L -63.352154,725.58636 L -63.352154,-103.76295 z"
         style="fill:#666666;fill-opacity:1;stroke:#000000;stroke-width:0.6007669;stroke-linecap:round;stroke-linejoin:bevel;stroke-miterlimit:4;stroke-opacity:1" />
      <g
         transform="translate(-163.65253,-234.2183)"
         id="g3265">
        <rect
           style="fill:#333333;fill-opacity:1;stroke:#000000;stroke-width:0.58186817;stroke-linecap:round;stroke-miterlimit:4;stroke-dasharray:none;stroke-opacity:1"
           id="rect3225"
           width="11.418132"
           height="108.58956"
           x="100.29093"
           y="88.781616" />
        <rect
           style="fill:#5a5a5a;fill-opacity:1;stroke:#000000;stroke-width:0.41584951;stroke-linecap:round;stroke-miterlimit:4;stroke-dasharray:none;stroke-opacity:1"
           id="rect3227"
           width="11.58415"
           height="84.881012"
           x="100.20793"
           y="280.42612" />
        <rect
           style="fill:#393939;fill-opacity:1;stroke:#000000;stroke-width:0.58184421;stroke-linecap:round;stroke-miterlimit:4;stroke-dasharray:none;stroke-opacity:1"
           id="rect3229"
           width="11.418156"
           height="10.71517"
           x="100.29093"
           y="364.50977" />
        <rect
           style="fill:#666666;fill-opacity:1;stroke:#000000;stroke-width:1.22697437;stroke-linecap:round;stroke-miterlimit:4;stroke-dasharray:none;stroke-opacity:1"
           id="rect3231"
           width="10.773026"
           height="198.64406"
           x="100.61349"
           y="374.83316" />
        <rect
           style="fill:#d77a35;fill-opacity:1;stroke:#000000;stroke-width:0.81233698;stroke-linecap:round;stroke-miterlimit:4;stroke-dasharray:none;stroke-opacity:1"
           id="rect3235"
           width="35.605606"
           height="92.981956"
           x="100.09698"
           y="188.62778" />
        <path
           style="fill:#505050;fill-opacity:1;stroke:#000000;stroke-width:0.59278935;stroke-linecap:round;stroke-linejoin:bevel;stroke-miterlimit:4;stroke-opacity:1"
           d="M 112.30968,206.6983 L 123.70359,206.6983 C 123.70359,206.6983 123.70359,550.03179 123.70359,559.1088 C 123.70359,568.20763 112.00017,574.50828 112.00017,574.50828 L 99.9872,574.50828 C 99.9872,574.50828 112.30968,564.83881 112.30968,559.1088 C 112.30968,553.21277 112.30968,206.6983 112.30968,206.6983 z"
           id="rect3233"
           sodipodi:nodetypes="cczccsc" />
        <path
           style="fill:#656565;fill-opacity:1;stroke:#000000;stroke-width:0.63945282;stroke-linecap:round;stroke-miterlimit:4;stroke-opacity:1"
           d="M 100.31973,574.52515 L 111.68028,574.52515 L 111.68028,779.48515 L 100.31973,779.48515 L 100.31973,574.52515 z"
           id="rect3237" />
        <rect
           style="fill:#585858;fill-opacity:1;stroke:#000000;stroke-width:0.59926903;stroke-linecap:round;stroke-miterlimit:4;stroke-dasharray:none;stroke-opacity:1"
           id="rect3239"
           width="11.400731"
           height="124.28583"
           x="100.29964"
           y="779.50525" />
        <rect
           style="fill:#4d4d4d;fill-opacity:1;stroke:#000000;stroke-width:0.59926903;stroke-linecap:round;stroke-miterlimit:4;stroke-dasharray:none;stroke-opacity:1"
           id="rect3241"
           width="11.400731"
           height="55.00005"
           x="100.29964"
           y="904.50537" />
      </g>
      <g
         inkscape:label="Calque 1"
         id="g3369"
         transform="matrix(0.3593757,0,0,0.3593757,-106.65532,-338.14254)">
        <g
           transform="matrix(7.9444493,0,0,7.9444493,332.25779,8758.1571)"
           style="fill:#074b88;stroke:none;stroke-width:14.23900032;display:inline;enable-background:new"
           id="g11966">
          <path
             transform="matrix(0.33333,0,0,0.33333,-4.2531991e-7,1.3963444e-5)"
             d="M 95,-3093 C 91,-3092 86,-3089 83,-3086 C 84,-3082 90,-3080 95,-3082 C 98,-3080 98,-3080 98,-3080 C 93,-3076 89,-3077 86,-3078 C 83,-3077 79,-3077 78,-3079 C 80,-3078 82,-3078 84,-3079 C 82,-3080 81,-3081 80,-3083 C 79,-3082 78,-3081 78,-3079 C 76,-3081 78,-3083 79,-3085 C 77,-3090 79,-3096 83,-3099 C 86,-3096 86,-3096 86,-3096 C 84,-3095 82,-3092 82,-3088 C 85,-3090 90,-3093 93,-3094 C 92,-3095 90,-3095 89,-3094 C 87,-3096 87,-3096 87,-3096 C 90,-3098 94,-3097 96,-3095 C 99,-3095 101,-3095 102,-3093 C 101,-3094 99,-3094 97,-3094 C 100,-3090 98,-3085 94,-3083 C 93,-3084 93,-3084 93,-3084 C 96,-3086 97,-3091 95,-3093 z"
             id="path11955"
             style="fill:#074b88;stroke:none;stroke-width:14.23900032;display:inline;enable-background:new" />
          <path
             d="M 64,-3089 L 64,-3080 L 60,-3080 L 60,-3096 L 71,-3087 L 71,-3096 L 75,-3096 L 75,-3080 L 64,-3089 z"
             id="path78"
             style="fill:#074b88;stroke:none;stroke-width:14.23900032;display:inline;enable-background:new"
             transform="matrix(0.3333333,0,0,0.3333333,-4.2531991e-7,1.3963444e-5)" />
          <path
             d="M 115,-3093 L 115,-3096 L 127,-3096 L 127,-3093 L 124,-3093 L 124,-3080 L 120,-3080 L 120,-3093 L 115,-3093 z"
             id="path80"
             style="fill:#074b88;stroke:none;stroke-width:14.23900032;display:inline;enable-background:new"
             transform="matrix(0.3333333,0,0,0.3333333,-4.2531991e-7,1.3963444e-5)" />
          <path
             d="M 130,-3080 L 130,-3096 L 140,-3096 L 140,-3093 L 134,-3093 L 134,-3090 L 139,-3090 L 139,-3087 L 134,-3087 L 134,-3083 L 140,-3083 L 140,-3080 L 130,-3080 z"
             id="path82"
             style="fill:#074b88;stroke:none;stroke-width:14.23900032;display:inline;enable-background:new"
             transform="matrix(0.3333333,0,0,0.3333333,-4.2531991e-7,1.3963444e-5)" />
          <path
             d="M 143,-3080 L 143,-3096 L 147,-3096 L 147,-3083 L 153,-3083 L 153,-3080 L 143,-3080 z"
             id="path84"
             style="fill:#074b88;stroke:none;stroke-width:14.23900032;display:inline;enable-background:new"
             transform="matrix(0.3333333,0,0,0.3333333,-4.2531991e-7,1.3963444e-5)" />
          <path
             transform="scale(0.33333,0.33333)"
             d="M 102,-3080 C 106,-3080 106,-3080 106,-3080 C 106,-3088 106,-3088 106,-3088 C 111,-3080 111,-3080 111,-3080 C 116,-3080 116,-3080 116,-3080 C 111,-3087 111,-3087 111,-3087 C 113,-3088 114,-3090 114,-3091 C 114,-3095 111,-3096 107,-3096 C 102,-3096 102,-3096 102,-3096 C 102,-3080 102,-3080 102,-3080 M 106,-3093 C 109,-3093 110,-3093 110,-3091 C 110,-3089 108,-3088 106,-3088 L 106,-3093 z"
             id="path11959" />
        </g>
      </g>
      <text
         id="text3385"
         y="36.300228"
         x="155.57054"
         style="font-size:20px;font-style:normal;font-variant:normal;font-weight:normal;font-stretch:normal;fill:#000000;fill-opacity:1;stroke:none;stroke-width:1px;stroke-linecap:butt;stroke-linejoin:miter;stroke-opacity:1;font-family:Arial;-inkscape-font-specification:Arial"
         xml:space="preserve"><tspan
           y="36.300228"
           x="155.57054"
           id="tspan3387"
           sodipodi:role="line">!</tspan></text>
      <g
         transform="matrix(0.8302202,0,0,0.8302202,-269.28046,-278.71105)"
         id="g3182">
        <path
           sodipodi:type="arc"
           style="opacity:1;fill:none;fill-opacity:1;stroke:#000000;stroke-width:1.85159767;stroke-linecap:round;stroke-linejoin:bevel;stroke-miterlimit:4;stroke-dasharray:none;stroke-opacity:1"
           id="path2406"
           sodipodi:cx="-109.60155"
           sodipodi:cy="228.58278"
           sodipodi:rx="12.626906"
           sodipodi:ry="12.626906"
           d="M -96.974641,228.58278 A 12.626906,12.626906 0 1 1 -122.22845,228.58278 A 12.626906,12.626906 0 1 1 -96.974641,228.58278 z"
           transform="matrix(0.8252025,0,0,0.8252025,605.55815,28.528356)" />
        <path
           style="fill:none;fill-rule:evenodd;stroke:#000000;stroke-width:1.56584954;stroke-linecap:butt;stroke-linejoin:miter;stroke-miterlimit:4;stroke-dasharray:none;stroke-opacity:1"
           d="M 504.82374,218.29185 L 514.86031,212.49723 L 514.86031,223.40575 L 525.37371,217.33583"
           id="path3180" />
      </g>
      <g
         transform="translate(545.59652,394.89602)"
         id="g2594">
        <rect
           y="385.40762"
           x="-69.118141"
           height="192.19687"
           width="359.19046"
           id="rect13735"
           style="fill:#ffffff;fill-opacity:1;stroke:#000000;stroke-width:2.64537859;stroke-miterlimit:4;stroke-dasharray:none;stroke-opacity:1"
           transform="matrix(0,1,-1,0,0,0)" />
        <g
           id="g2580">
          <g
             id="g2571">
            <g
               transform="matrix(0,3.8008595,-4.0199816,0,1001.8355,-1301.9438)"
               id="g13764">
              <path
                 style="opacity:1;fill:#000000;fill-opacity:1;stroke:none;stroke-width:1;stroke-miterlimit:4;stroke-opacity:1"
                 d="M 328.04703,348.28586 L 335.68631,348.28586 L 335.68631,347.33884 L 347.49246,347.33884 L 347.49246,348.28586 L 355.32115,348.28586 L 355.32115,359.33441 L 354.05846,359.33441 L 354.05846,363.59598 L 355.32115,363.59598 L 355.32115,368.23637 L 328.04703,368.23637 L 327.95233,363.59598 L 328.99405,363.59598 L 328.99405,359.33441 L 327.9839,359.33441 L 328.04703,348.28586 z"
                 id="rect13737"
                 sodipodi:nodetypes="ccccccccccccccccc" />
              <g
                 id="g13746">
                <rect
                   y="348.13385"
                   x="327.76877"
                   height="5.7335877"
                   width="6.763278"
                   id="rect13740"
                   style="opacity:1;fill:#548f40;fill-opacity:1;stroke:#1f2122;stroke-width:0.44851992;stroke-miterlimit:4;stroke-dasharray:none;stroke-opacity:1" />
              </g>
              <use
                 x="0"
                 y="0"
                 xlink:href="#g13746"
                 id="use13751"
                 transform="translate(20.910495,0)"
                 width="744.09448"
                 height="1052.3622" />
            </g>
            <use
               height="1052.3622"
               width="744.09448"
               transform="translate(0,114.02579)"
               id="use13772"
               xlink:href="#g13764"
               y="0"
               x="0" />
            <use
               height="1052.3622"
               width="744.09448"
               transform="translate(0,114.02579)"
               id="use13774"
               xlink:href="#use13772"
               y="0"
               x="0" />
          </g>
          <g
             transform="translate(0,-1.25972)"
             id="g2566">
            <use
               height="1052.3622"
               width="744.09448"
               transform="matrix(-1,0,0,1,-963.01214,-226.79186)"
               id="use13776"
               xlink:href="#use13774"
               y="0"
               x="0" />
            <use
               height="1052.3622"
               width="744.09448"
               transform="translate(4.0496802e-7,114.02579)"
               id="use13778"
               xlink:href="#use13776"
               y="0"
               x="0" />
            <use
               height="1052.3622"
               width="744.09448"
               transform="translate(4.0496805e-7,114.02579)"
               id="use13780"
               xlink:href="#use13778"
               y="0"
               x="0" />
          </g>
        </g>
      </g>
      <text
         id="text2610"
         y="719.25983"
         x="-30.017273"
         style="font-size:36px;font-style:normal;font-variant:normal;font-weight:bold;font-stretch:normal;text-align:start;text-anchor:start;fill:#ffffff;fill-opacity:1;stroke:none;stroke-width:1px;stroke-linecap:butt;stroke-linejoin:miter;stroke-opacity:1;font-family:Arial;-inkscape-font-specification:Sans"
         xml:space="preserve"><tspan
           y="719.25983"
           x="-30.017273"
           id="tspan2612"
           sodipodi:role="line">6</tspan></text>
      <text
         id="text2614"
         y="719.47955"
         x="-7.0144649"
         style="font-size:14px;font-style:normal;font-variant:normal;font-weight:normal;font-stretch:normal;text-align:start;text-anchor:start;fill:#ffffff;fill-opacity:1;stroke:none;stroke-width:1px;stroke-linecap:butt;stroke-linejoin:miter;stroke-opacity:1;font-family:Arial;-inkscape-font-specification:Arial"
         xml:space="preserve"><tspan
           y="719.47955"
           x="-7.0144649"
           id="tspan2616"
           sodipodi:role="line">Tx/Rx</tspan></text>
      <g
         transform="matrix(0,4.0489163,-3.6234861,0,1645.1262,-2869.3781)"
         id="g14144">
        <rect
           style="opacity:1;fill:#000000;fill-opacity:1;stroke:#ffffff;stroke-width:0.73125112;stroke-miterlimit:4;stroke-dasharray:none;stroke-opacity:1"
           id="rect14140"
           width="31.030939"
           height="21.687027"
           x="685.5304"
           y="437.10107" />
        <path
           style="fill:none;fill-rule:evenodd;stroke:#ffffff;stroke-width:1.20000005;stroke-linecap:butt;stroke-linejoin:miter;stroke-miterlimit:4;stroke-dasharray:none;stroke-opacity:1"
           d="M 695.6163,457.52518 L 706.47544,457.52518"
           id="path14142" />
      </g>
      <use
         height="235.7952"
         width="871.61438"
         transform="translate(0,141)"
         id="use2892"
         xlink:href="#g14144"
         y="0"
         x="0" />
      <use
         height="235.7952"
         width="871.61438"
         transform="translate(0,141.00006)"
         id="use2894"
         xlink:href="#use2892"
         y="0"
         x="0" />
      <path
         transform="translate(-219.59914,406.40027)"
         d="M 383.60754,-480.74765 A 5.6302476,5.6302476 0 1 1 372.34705,-480.74765 A 5.6302476,5.6302476 0 1 1 383.60754,-480.74765 z"
         sodipodi:ry="5.6302476"
         sodipodi:rx="5.6302476"
         sodipodi:cy="-480.74765"
         sodipodi:cx="377.97729"
         id="path2897"
         style="opacity:1;fill:#bdbdbd;fill-opacity:1;stroke:#4f4f4f;stroke-width:0.81199998;stroke-linecap:round;stroke-linejoin:miter;stroke-miterlimit:4;stroke-dasharray:none;stroke-dashoffset:0;stroke-opacity:1"
         sodipodi:type="arc" />
      <text
         xml:space="preserve"
         style="font-size:36px;font-style:normal;font-variant:normal;font-weight:bold;font-stretch:normal;text-align:start;text-anchor:start;fill:#ffffff;fill-opacity:1;stroke:none;stroke-width:1px;stroke-linecap:butt;stroke-linejoin:miter;stroke-opacity:1;font-family:Arial;-inkscape-font-specification:Sans"
         x="70.576485"
         y="-69.72554"
         id="text3669"><tspan
           sodipodi:role="line"
           id="tspan3671"
           x="70.576485"
           y="-69.72554">1</tspan></text>
      <text
         id="text3673"
         y="70.27446"
         x="70.576485"
         style="font-size:36px;font-style:normal;font-variant:normal;font-weight:bold;font-stretch:normal;text-align:start;text-anchor:start;fill:#ffffff;fill-opacity:1;stroke:none;stroke-width:1px;stroke-linecap:butt;stroke-linejoin:miter;stroke-opacity:1;font-family:Arial;-inkscape-font-specification:Sans"
         xml:space="preserve"><tspan
           y="70.27446"
           x="70.576485"
           id="tspan3675"
           sodipodi:role="line">2</tspan></text>
      <text
         xml:space="preserve"
         style="font-size:36px;font-style:normal;font-variant:normal;font-weight:bold;font-stretch:normal;text-align:start;text-anchor:start;fill:#ffffff;fill-opacity:1;stroke:none;stroke-width:1px;stroke-linecap:butt;stroke-linejoin:miter;stroke-opacity:1;font-family:Arial;-inkscape-font-specification:Sans"
         x="70.576485"
         y="210.27446"
         id="text3677"><tspan
           sodipodi:role="line"
           id="tspan3679"
           x="70.576485"
           y="210.27446">3</tspan></text>
      <g
         id="g3693">
        <use
           x="0"
           y="0"
           xlink:href="#path2897"
           id="use3681"
           transform="translate(-78.072767,28.526588)"
           width="871.61438"
           height="235.7952" />
        <text
           xml:space="preserve"
           style="font-size:14px;font-style:normal;font-variant:normal;font-weight:normal;font-stretch:normal;text-align:start;text-anchor:start;fill:#ffffff;fill-opacity:1;stroke:none;stroke-width:1px;stroke-linecap:butt;stroke-linejoin:miter;stroke-opacity:1;font-family:Arial;-inkscape-font-specification:Arial"
           x="93.321579"
           y="-40.810051"
           id="text3683"><tspan
             sodipodi:role="line"
             id="tspan3685"
             x="93.321579"
             y="-40.810051">Link</tspan></text>
        <use
           height="235.7952"
           width="871.61438"
           transform="translate(-78.072767,54.526588)"
           id="use3687"
           xlink:href="#path2897"
           y="0"
           x="0" />
        <text
           id="text3689"
           y="-14.810051"
           x="93.321579"
           style="font-size:14px;font-style:normal;font-variant:normal;font-weight:normal;font-stretch:normal;text-align:start;text-anchor:start;fill:#ffffff;fill-opacity:1;stroke:none;stroke-width:1px;stroke-linecap:butt;stroke-linejoin:miter;stroke-opacity:1;font-family:Arial;-inkscape-font-specification:Arial"
           xml:space="preserve"><tspan
             y="-14.810051"
             x="93.321579"
             id="tspan3691"
             sodipodi:role="line">Tx/Rx</tspan></text>
      </g>
      <use
         height="235.7952"
         width="871.61438"
         transform="translate(0,140)"
         id="use3701"
         xlink:href="#g3693"
         y="0"
         x="0" />
      <use
         height="235.7952"
         width="871.61438"
         transform="translate(0,140)"
         id="use3703"
         xlink:href="#use3701"
         y="0"
         x="0" />
      <text
         xml:space="preserve"
         style="font-size:36px;font-style:normal;font-variant:normal;font-weight:bold;font-stretch:normal;text-align:start;text-anchor:start;fill:#ffffff;fill-opacity:1;stroke:none;stroke-width:1px;stroke-linecap:butt;stroke-linejoin:miter;stroke-opacity:1;font-family:Arial;-inkscape-font-specification:Sans"
         x="101.98273"
         y="719.25983"
         id="text3705"><tspan
           sodipodi:role="line"
           id="tspan3707"
           x="101.98273"
           y="719.25983">9</tspan></text>
      <text
         xml:space="preserve"
         style="font-size:14px;font-style:normal;font-variant:normal;font-weight:normal;font-stretch:normal;text-align:start;text-anchor:start;fill:#ffffff;fill-opacity:1;stroke:none;stroke-width:1px;stroke-linecap:butt;stroke-linejoin:miter;stroke-opacity:1;font-family:Arial;-inkscape-font-specification:Arial"
         x="124.98553"
         y="719.47955"
         id="text3709"><tspan
           sodipodi:role="line"
           id="tspan3711"
           x="124.98553"
           y="719.47955">Tx/Rx</tspan></text>
      <text
         id="text3713"
         y="319.95624"
         x="84.99633"
         style="font-size:36px;font-style:normal;font-variant:normal;font-weight:bold;font-stretch:normal;text-align:start;text-anchor:start;fill:#ffffff;fill-opacity:1;stroke:none;stroke-width:1px;stroke-linecap:butt;stroke-linejoin:miter;stroke-opacity:1;font-family:Arial;-inkscape-font-specification:Sans"
         xml:space="preserve"><tspan
           y="319.95624"
           x="84.99633"
           id="tspan3715"
           sodipodi:role="line">7</tspan></text>
      <text
         id="text3717"
         y="320.17596"
         x="107.99913"
         style="font-size:14px;font-style:normal;font-variant:normal;font-weight:normal;font-stretch:normal;text-align:start;text-anchor:start;fill:#ffffff;fill-opacity:1;stroke:none;stroke-width:1px;stroke-linecap:butt;stroke-linejoin:miter;stroke-opacity:1;font-family:Arial;-inkscape-font-specification:Arial"
         xml:space="preserve"><tspan
           y="320.17596"
           x="107.99913"
           id="tspan3719"
           sodipodi:role="line">Tx/Rx</tspan></text>
      <path
         transform="translate(-218.21878,406.40027)"
         id="path3721"
         d="M 286.64541,282.50778 L 286.64541,314.35727"
         style="fill:none;fill-rule:evenodd;stroke:#ffffff;stroke-width:3;stroke-linecap:butt;stroke-linejoin:miter;stroke-miterlimit:4;stroke-dasharray:none;stroke-opacity:1" />
      <path
         style="fill:none;fill-rule:evenodd;stroke:#ffffff;stroke-width:3;stroke-linecap:butt;stroke-linejoin:miter;stroke-miterlimit:4;stroke-dasharray:none;stroke-opacity:1"
         d="M 70.152422,282.29622 L 161.18766,282.29622"
         id="path3723" />
      <use
         height="235.7952"
         width="871.61438"
         transform="translate(0,80)"
         id="use3725"
         xlink:href="#path2897"
         y="0"
         x="0" />
      <g
         transform="matrix(0.9446929,0,0,0.9446929,8.7986435,9.2794502)"
         id="g3749">
        <path
           style="fill:#deaa87;fill-rule:evenodd;stroke:#808080;stroke-width:1.05854511px;stroke-linecap:butt;stroke-linejoin:miter;stroke-opacity:1"
           d="M 386.98568,-272.05314 L 375.34984,-272.05316 L 367.62575,-264.11642 L 367.62575,-232.17969 L 376.14746,-224.24295 L 386.98568,-224.24295 L 386.98568,-272.05314 z"
           id="path3747"
           transform="translate(-218.21878,406.40027)"
           sodipodi:nodetypes="ccccccc" />
        <g
           id="g3739"
           transform="matrix(0.9515043,0,0,0.9515043,7.5024863,6.9436511)">
          <rect
             rx="3.821744"
             ry="6.2998567"
             y="143.73088"
             x="155.25429"
             height="30.468395"
             width="10.509797"
             id="rect3727"
             style="opacity:1;fill:#ffccaa;fill-opacity:1;stroke:#ffb380;stroke-width:1.22374606;stroke-linecap:round;stroke-linejoin:miter;stroke-miterlimit:4;stroke-dasharray:none;stroke-dashoffset:0;stroke-opacity:1" />
          <path
             transform="translate(-218.21878,406.40027)"
             d="M 380.22938,-257.27374 A 1.4544806,1.4544806 0 1 1 377.32042,-257.27374 A 1.4544806,1.4544806 0 1 1 380.22938,-257.27374 z"
             sodipodi:ry="1.4544806"
             sodipodi:rx="1.4544806"
             sodipodi:cy="-257.27374"
             sodipodi:cx="378.7749"
             id="path3729"
             style="opacity:1;fill:#000000;fill-opacity:1;stroke:#1a1a1a;stroke-width:1.22374606;stroke-linecap:round;stroke-linejoin:miter;stroke-miterlimit:4;stroke-dasharray:none;stroke-dashoffset:0;stroke-opacity:1"
             sodipodi:type="arc" />
          <use
             height="235.7952"
             width="871.61438"
             transform="translate(0,20)"
             id="use3731"
             xlink:href="#path3729"
             y="0"
             x="0" />
          <use
             height="235.7952"
             width="871.61438"
             transform="translate(0,-5)"
             id="use3733"
             xlink:href="#use3731"
             y="0"
             x="0" />
          <use
             height="235.7952"
             width="871.61438"
             transform="translate(0,-5)"
             id="use3735"
             xlink:href="#use3733"
             y="0"
             x="0" />
          <use
             height="235.7952"
             width="871.61438"
             transform="translate(0,-5)"
             id="use3737"
             xlink:href="#use3735"
             y="0"
             x="0" />
        </g>
      </g>
    </g>
  </g>
</svg>
